<?xml version="1.0" standalone="no"?><!DOCTYPE svg PUBLIC "-//W3C//DTD SVG 1.1//EN" "http://www.w3.org/Graphics/SVG/1.1/DTD/svg11.dtd"><svg t="1671980548358" class="icon" viewBox="0 0 1024 1024" version="1.1" xmlns="http://www.w3.org/2000/svg" p-id="830" xmlns:xlink="http://www.w3.org/1999/xlink" width="200" height="200"><path d="M765.44 961.792H267.136c-113.152 0-204.8-91.648-204.8-204.8V258.56c0-113.152 91.648-204.8 204.8-204.8H765.44c113.152 0 204.8 91.648 204.8 204.8v498.304c0 113.152-91.648 204.928-204.8 204.928z" fill="#4C6EF5" p-id="831"></path><path d="M604.032 356.992c-8.704-4.992-11.648-16-6.656-24.704l29.056-50.304c4.992-8.704 16-11.648 24.704-6.656 8.704 4.992 11.648 16 6.656 24.704l-29.056 50.304c-4.992 8.704-16 11.648-24.704 6.656zM665.6 419.84c-4.992-8.704-2.048-19.712 6.656-24.704l50.304-29.056c8.704-4.992 19.712-2.048 24.704 6.656 4.992 8.704 2.048 19.712-6.656 24.704l-50.304 29.056c-8.576 4.864-19.712 1.92-24.704-6.656zM687.616 504.96c0-9.984 8.064-18.048 18.048-18.048h58.112c9.984 0 18.048 8.064 18.048 18.048s-8.064 18.048-18.048 18.048h-58.112c-9.984 0-18.048-8.064-18.048-18.048zM663.936 589.696c4.992-8.704 16-11.648 24.704-6.656l50.304 29.056c8.704 4.992 11.648 16 6.656 24.704-4.992 8.704-16 11.648-24.704 6.656L670.592 614.4c-8.576-4.992-11.648-16-6.656-24.704zM601.216 651.264c8.704-4.992 19.712-2.048 24.704 6.656l29.056 50.304c4.992 8.704 2.048 19.712-6.656 24.704-8.704 4.992-19.712 2.048-24.704-6.656l-29.056-50.304c-4.992-8.576-2.048-19.712 6.656-24.704zM515.968 673.28c9.984 0 18.048 8.064 18.048 18.048v58.112c0 9.984-8.064 18.048-18.048 18.048s-18.048-8.064-18.048-18.048v-58.112c0-9.984 8.064-18.048 18.048-18.048zM542.08 509.568c0.128-0.768 0.512-1.536 0.512-2.304l-1.152-117.888c-0.128-13.952-11.52-25.088-25.344-25.088h-0.256c-13.952 0.128-25.216 11.648-25.088 25.6l1.024 110.208-57.344 86.912c-7.68 11.648-4.48 27.392 7.168 35.072 4.352 2.816 9.088 4.224 13.952 4.224 8.192 0 16.256-3.968 21.12-11.392l61.568-93.312c0.384-0.64 0.512-1.408 0.896-2.176 0.768-1.536 1.408-3.072 1.92-4.736 0.512-1.92 0.768-3.456 1.024-5.12z" fill="#FFFFFF" p-id="832"></path><path d="M374.784 731.648c-4.736 0-9.6-1.28-13.824-4.096-77.056-50.304-123.008-135.296-123.008-227.2C237.952 350.72 359.68 229.12 509.184 229.12c13.952 0 25.344 11.392 25.344 25.344s-11.392 25.344-25.344 25.344c-121.6 0-220.544 98.944-220.544 220.544 0 74.752 37.376 143.744 100.096 184.832 11.776 7.68 14.976 23.296 7.296 35.072-4.864 7.424-13.056 11.392-21.248 11.392z" fill="#FFFFFF" p-id="833"></path></svg>