<?xml version="1.0" standalone="no"?><!DOCTYPE svg PUBLIC "-//W3C//DTD SVG 1.1//EN" "http://www.w3.org/Graphics/SVG/1.1/DTD/svg11.dtd"><svg t="1672072916573" class="icon" viewBox="0 0 1024 1024" version="1.1" xmlns="http://www.w3.org/2000/svg" p-id="892" xmlns:xlink="http://www.w3.org/1999/xlink" width="200" height="200"><path d="M675.0208 52.0192h-322.56c-165.888 0-299.52 133.632-299.52 299.52v322.56c0 165.888 133.632 299.52 299.52 299.52h322.56c165.888 0 299.52-133.632 299.52-299.52v-322.56c0-165.888-133.632-299.52-299.52-299.52z m56.832 678.912c-119.808 119.808-316.416 119.808-436.224 0s-119.808-316.416 0-436.224 316.416-119.808 436.224 0c121.344 119.808 121.344 316.416 0 436.224z" fill="#4C6EF5" p-id="893"></path><path d="M328.704 327.168C225.792 430.08 225.792 595.968 328.704 697.344c102.912 102.912 268.8 102.912 370.176 0 102.912-102.912 102.912-268.8 0-370.176-101.376-101.376-267.264-101.376-370.176 0z m308.736 227.328h-138.24c-7.68 0-13.824-3.072-19.968-7.68-7.68-6.144-12.288-15.36-12.288-24.576V387.072c0-16.896 7.68-30.72 24.576-30.72s21.504 13.824 21.504 30.72v121.344h124.416c16.896 0 30.72 4.608 30.72 21.504s-13.824 24.576-30.72 24.576z" fill="#4C6EF5" p-id="894"></path></svg>